<mxfile host="app.diagrams.net" modified="2022-06-29T15:33:08.914Z" agent="5.0 (Macintosh; Intel Mac OS X 10_15_7) AppleWebKit/537.36 (KHTML, like Gecko) Chrome/103.0.5060.53 Safari/537.36 Edg/103.0.1264.37" etag="d6_C-l3jq3bOuHqmYlnk" version="20.0.3" type="github">
  <diagram id="047bx2LSxqvgQP_RfyZ8" name="Page-1">
    <mxGraphModel dx="1123" dy="779" grid="1" gridSize="10" guides="1" tooltips="1" connect="1" arrows="1" fold="1" page="1" pageScale="1" pageWidth="827" pageHeight="1169" math="0" shadow="0">
      <root>
        <mxCell id="0" />
        <mxCell id="1" parent="0" />
        <mxCell id="68awcWDbn_1YLwbSrhHn-3" value="React.createElement()" style="swimlane;fontStyle=0;childLayout=stackLayout;horizontal=1;startSize=30;horizontalStack=0;resizeParent=1;resizeParentMax=0;resizeLast=0;collapsible=1;marginBottom=0;fillColor=#dae8fc;strokeColor=#6c8ebf;" parent="1" vertex="1">
          <mxGeometry x="80" y="40" width="390" height="120" as="geometry" />
        </mxCell>
        <mxCell id="68awcWDbn_1YLwbSrhHn-4" value="type" style="text;strokeColor=default;fillColor=none;align=left;verticalAlign=middle;spacingLeft=4;spacingRight=4;overflow=hidden;points=[[0,0.5],[1,0.5]];portConstraint=eastwest;rotatable=0;" parent="68awcWDbn_1YLwbSrhHn-3" vertex="1">
          <mxGeometry y="30" width="390" height="30" as="geometry" />
        </mxCell>
        <mxCell id="68awcWDbn_1YLwbSrhHn-5" value="[props]" style="text;strokeColor=default;fillColor=none;align=left;verticalAlign=middle;spacingLeft=4;spacingRight=4;overflow=hidden;points=[[0,0.5],[1,0.5]];portConstraint=eastwest;rotatable=0;" parent="68awcWDbn_1YLwbSrhHn-3" vertex="1">
          <mxGeometry y="60" width="390" height="30" as="geometry" />
        </mxCell>
        <mxCell id="68awcWDbn_1YLwbSrhHn-6" value="[...children]" style="text;strokeColor=default;fillColor=none;align=left;verticalAlign=middle;spacingLeft=4;spacingRight=4;overflow=hidden;points=[[0,0.5],[1,0.5]];portConstraint=eastwest;rotatable=0;" parent="68awcWDbn_1YLwbSrhHn-3" vertex="1">
          <mxGeometry y="90" width="390" height="30" as="geometry" />
        </mxCell>
        <mxCell id="68awcWDbn_1YLwbSrhHn-17" value="argv" style="swimlane;fontStyle=0;childLayout=stackLayout;horizontal=1;startSize=30;horizontalStack=0;resizeParent=1;resizeParentMax=0;resizeLast=0;collapsible=1;marginBottom=0;fillColor=#f5f5f5;fontColor=#333333;strokeColor=#666666;" parent="1" vertex="1">
          <mxGeometry x="80" y="170" width="190" height="180" as="geometry" />
        </mxCell>
        <mxCell id="68awcWDbn_1YLwbSrhHn-18" value="&quot;div&quot;" style="text;strokeColor=none;fillColor=none;align=left;verticalAlign=middle;spacingLeft=4;spacingRight=4;overflow=hidden;points=[[0,0.5],[1,0.5]];portConstraint=eastwest;rotatable=0;" parent="68awcWDbn_1YLwbSrhHn-17" vertex="1">
          <mxGeometry y="30" width="190" height="30" as="geometry" />
        </mxCell>
        <mxCell id="68awcWDbn_1YLwbSrhHn-19" value="{ className: &quot;app&quot; }" style="text;strokeColor=default;fillColor=none;align=left;verticalAlign=middle;spacingLeft=4;spacingRight=4;overflow=hidden;points=[[0,0.5],[1,0.5]];portConstraint=eastwest;rotatable=0;" parent="68awcWDbn_1YLwbSrhHn-17" vertex="1">
          <mxGeometry y="60" width="190" height="30" as="geometry" />
        </mxCell>
        <mxCell id="68awcWDbn_1YLwbSrhHn-20" value="&quot;hello!&quot;,&#xa;React.createElement(&#xa;        &quot;p&quot;,&#xa;        { className: &quot;content&quot; },&#xa;        &quot;react&quot;&#xa;    )" style="text;strokeColor=default;fillColor=none;align=left;verticalAlign=middle;spacingLeft=4;spacingRight=4;overflow=hidden;points=[[0,0.5],[1,0.5]];portConstraint=eastwest;rotatable=0;" parent="68awcWDbn_1YLwbSrhHn-17" vertex="1">
          <mxGeometry y="90" width="190" height="90" as="geometry" />
        </mxCell>
        <mxCell id="68awcWDbn_1YLwbSrhHn-21" value="return" style="swimlane;fontStyle=0;childLayout=stackLayout;horizontal=1;startSize=30;horizontalStack=0;resizeParent=1;resizeParentMax=0;resizeLast=0;collapsible=1;marginBottom=0;" parent="1" vertex="1">
          <mxGeometry x="80" y="360" width="190" height="280" as="geometry" />
        </mxCell>
        <mxCell id="68awcWDbn_1YLwbSrhHn-23" value="{&#xa;    type: &#39;div&#39;,&#xa;    props: {&#xa;        children: [&#xa;            &quot;hello!&quot;,&#xa;            {&#xa;                type: &quot;p&quot;,&#xa;                props: {&#xa;                    children: &quot;react&quot;,&#xa;                    className: &quot;content&quot;&#xa;                }&#xa;            }&#xa;        ],&#xa;        className: &quot;app&quot;&#xa;    }&#xa;}" style="text;strokeColor=default;fillColor=none;align=left;verticalAlign=middle;spacingLeft=4;spacingRight=4;overflow=hidden;points=[[0,0.5],[1,0.5]];portConstraint=eastwest;rotatable=0;" parent="68awcWDbn_1YLwbSrhHn-21" vertex="1">
          <mxGeometry y="30" width="190" height="250" as="geometry" />
        </mxCell>
        <mxCell id="68awcWDbn_1YLwbSrhHn-30" value="argv" style="swimlane;fontStyle=0;childLayout=stackLayout;horizontal=1;startSize=30;horizontalStack=0;resizeParent=1;resizeParentMax=0;resizeLast=0;collapsible=1;marginBottom=0;fillColor=#f5f5f5;fontColor=#333333;strokeColor=#666666;" parent="1" vertex="1">
          <mxGeometry x="280" y="170" width="190" height="120" as="geometry" />
        </mxCell>
        <mxCell id="68awcWDbn_1YLwbSrhHn-31" value="App" style="text;strokeColor=none;fillColor=none;align=left;verticalAlign=middle;spacingLeft=4;spacingRight=4;overflow=hidden;points=[[0,0.5],[1,0.5]];portConstraint=eastwest;rotatable=0;" parent="68awcWDbn_1YLwbSrhHn-30" vertex="1">
          <mxGeometry y="30" width="190" height="30" as="geometry" />
        </mxCell>
        <mxCell id="68awcWDbn_1YLwbSrhHn-32" value="null" style="text;strokeColor=default;fillColor=none;align=left;verticalAlign=middle;spacingLeft=4;spacingRight=4;overflow=hidden;points=[[0,0.5],[1,0.5]];portConstraint=eastwest;rotatable=0;" parent="68awcWDbn_1YLwbSrhHn-30" vertex="1">
          <mxGeometry y="60" width="190" height="30" as="geometry" />
        </mxCell>
        <mxCell id="68awcWDbn_1YLwbSrhHn-33" value="null" style="text;strokeColor=default;fillColor=none;align=left;verticalAlign=middle;spacingLeft=4;spacingRight=4;overflow=hidden;points=[[0,0.5],[1,0.5]];portConstraint=eastwest;rotatable=0;" parent="68awcWDbn_1YLwbSrhHn-30" vertex="1">
          <mxGeometry y="90" width="190" height="30" as="geometry" />
        </mxCell>
        <mxCell id="68awcWDbn_1YLwbSrhHn-34" value="return" style="swimlane;fontStyle=0;childLayout=stackLayout;horizontal=1;startSize=30;horizontalStack=0;resizeParent=1;resizeParentMax=0;resizeLast=0;collapsible=1;marginBottom=0;" parent="1" vertex="1">
          <mxGeometry x="280" y="360" width="190" height="110" as="geometry" />
        </mxCell>
        <mxCell id="68awcWDbn_1YLwbSrhHn-36" value=" {&#xa;    type: type: f App(),&#xa;    props: {}&#xa;}&#xa;" style="text;strokeColor=default;fillColor=none;align=left;verticalAlign=top;spacingLeft=4;spacingRight=4;overflow=hidden;points=[[0,0.5],[1,0.5]];portConstraint=eastwest;rotatable=0;" parent="68awcWDbn_1YLwbSrhHn-34" vertex="1">
          <mxGeometry y="30" width="190" height="80" as="geometry" />
        </mxCell>
      </root>
    </mxGraphModel>
  </diagram>
</mxfile>
